<svg width="72" height="40" viewBox="0 0 72 40" fill="none" xmlns="http://www.w3.org/2000/svg">
<symbol id="logo">
<path d="M18.8238 0.428721C19.4023 -0.167529 20.4493 -0.126279 20.9969 0.494971C26.8872 6.45247 32.7788 12.41 38.6703 18.3675C39.3106 18.9362 39.3218 20.0625 38.6691 20.625C38.1103 21.1425 37.1573 21.12 36.6257 20.5712C35.9841 19.9362 35.3525 19.2912 34.722 18.6462C34.6788 24.4275 34.7294 30.2087 34.7022 35.99C43.1118 36.0137 61.1144 35.9912 69.524 36.0012C70.3188 35.975 71.0395 36.6937 70.9999 37.5012C71.0358 38.3062 70.3238 39.0225 69.5314 38.9987C55.1042 39.005 31.084 38.995 16.658 39.0037C15.6728 38.9975 14.6814 39.035 13.7085 38.86C11.188 38.4475 8.84549 37.045 7.27186 35.0137C5.90837 33.2787 5.10858 31.0962 5.05048 28.8787C5.00845 25.4675 5.06655 22.0562 5.02576 18.645C4.39902 19.2912 3.76735 19.9312 3.13072 20.5662C2.60041 21.1162 1.64362 21.1437 1.08241 20.6287C0.576818 20.1912 0.454438 19.3962 0.752353 18.8062C0.924179 18.485 1.20108 18.2462 1.45078 17.99C2.64491 16.785 3.83657 15.5775 5.0307 14.3712C5.07273 11.58 5.01092 8.78997 5.04801 5.99872C5.01216 5.24622 5.6426 4.53872 6.39048 4.51372C9.11374 4.46497 11.8382 4.52622 14.5615 4.49997C14.7086 4.51747 14.831 4.47122 14.9274 4.36372C16.2278 3.05497 17.5184 1.73497 18.8238 0.428721ZM8.01726 15.6275C7.98883 19.42 8.02592 23.2125 8.00243 27.005C8.00119 28.255 7.9468 29.5387 8.35103 30.74C9.12486 33.2887 11.3376 35.32 13.9236 35.8412C15.1066 36.1075 16.323 35.9525 17.5233 36.0025C22.2591 36.0062 26.9948 35.9875 31.7293 36.0087C31.7528 29.215 31.7416 22.42 31.7305 15.6262C27.7773 11.6337 23.8302 7.63372 19.8745 3.64247C15.9176 7.63372 11.9717 11.635 8.01726 15.6275ZM8.0185 7.49372C8.0049 8.77872 7.98512 10.0662 8.02468 11.3512C9.28185 10.0687 10.544 8.78872 11.816 7.51997C10.5514 7.47372 9.28433 7.50622 8.0185 7.49372Z" fill="#0072DB"/>
<rect x="31" y="12" width="5" height="24" fill="white"/>
</symbol>
</svg>
