<svg  xmlns="http://www.w3.org/2000/svg">
<symbol id="no-photo-svg">
<g clip-path="url(#clip0_8_1649)">
<path d="M41.154 51.0876C41.154 52.2937 40.1765 53.2712 38.9708 53.2712H8.73291C3.91742 53.2712 0 49.3534 0 44.5379V19.4308C0 17.5889 0.566956 15.8269 1.6402 14.335C2.3443 13.3562 3.7085 13.134 4.68732 13.8377C5.66614 14.5418 5.88873 15.9064 5.18463 16.8852C4.64929 17.6295 4.36645 18.5096 4.36645 19.4308V44.5379C4.36645 46.9458 6.32538 48.9043 8.73291 48.9043H38.9708C40.1765 48.9043 41.154 49.8819 41.154 51.0876ZM17.1321 26.7764C15.9427 26.5709 14.8143 27.3681 14.6088 28.5563C14.4764 29.3228 14.4093 30.1089 14.4093 30.8929C14.4093 38.4167 20.5305 44.5379 28.0547 44.5379C28.9498 44.5379 29.8453 44.4507 30.7164 44.2781C31.899 44.044 32.6681 42.8951 32.434 41.7125C32.1998 40.5294 31.051 39.7604 29.8683 39.995C29.2758 40.112 28.6656 40.1714 28.0547 40.1714C22.9384 40.1714 18.7758 36.0092 18.7758 30.8929C18.7758 30.3576 18.8215 29.8218 18.9116 29.2997C19.1171 28.1115 18.3203 26.9819 17.1321 26.7764ZM55.3608 55.2515C54.9344 55.6779 54.3756 55.8911 53.8168 55.8911C53.2579 55.8911 52.6991 55.6779 52.2727 55.2515L0.748535 3.72732C-0.104248 2.87454 -0.104248 1.49197 0.748535 0.639614C1.60132 -0.213169 2.98346 -0.213169 3.83624 0.639614L13.3916 10.195C13.6877 9.94931 13.9184 9.62631 14.0521 9.25631L14.8079 7.16323C15.7419 4.57626 18.2178 2.83822 20.9684 2.83822H34.9158C37.7207 2.83822 40.2124 4.6224 41.1165 7.27774L41.777 9.21829C42.0782 10.1031 42.9087 10.6978 43.8436 10.6978H47.1577C51.9732 10.6978 55.8906 14.6157 55.8906 19.4308V33.6217C55.8906 34.8278 54.9135 35.805 53.7074 35.805C52.5017 35.805 51.5242 34.8278 51.5242 33.6217V19.4308C51.5242 17.0232 49.5657 15.0643 47.1577 15.0643H43.8436C41.0391 15.0643 38.547 13.2805 37.6434 10.6252L36.9824 8.68466C36.6812 7.7994 35.8506 7.20468 34.9158 7.20468H20.9684C20.0515 7.20468 19.2261 7.78402 18.9146 8.64621L18.1588 10.7393C17.8051 11.7194 17.224 12.5884 16.4823 13.2857L21.907 18.7104C23.8053 17.7517 25.9065 17.2475 28.0547 17.2475C35.5785 17.2475 41.6996 23.3687 41.6996 30.8929C41.6996 33.0467 41.1972 35.1436 40.2376 37.041L50.5218 47.3252C51.1631 46.5549 51.5242 45.5799 51.5242 44.5379C51.5242 43.3322 52.5017 42.3546 53.7074 42.3546C54.9135 42.3546 55.8906 43.3322 55.8906 44.5379C55.8906 46.7638 55.069 48.839 53.6189 50.4223L55.3608 52.1638C56.2132 53.0166 56.2132 54.3991 55.3608 55.2515ZM25.2451 22.0485L36.8991 33.7025C37.1849 32.801 37.3332 31.8555 37.3332 30.8929C37.3332 25.7766 33.171 21.614 28.0547 21.614C27.0938 21.614 26.1475 21.7622 25.2451 22.0485Z" fill="#DBDBDC"/>
</g>
<defs>
<clipPath id="clip0_8_1649">
<!-- <rect width="56" height="56" fill="white"/> -->
</clipPath>
</defs>
</symbol>
</svg>
