<svg width="22" height="18" viewBox="0 0 22 18" fill="none" xmlns="http://www.w3.org/2000/svg">
<symbol id="stack">
<path d="M0.5 2.25C0.5 1.65326 0.737053 1.08097 1.15901 0.65901C1.58097 0.237053 2.15326 0 2.75 0H13.25C13.8467 0 14.419 0.237053 14.841 0.65901C15.2629 1.08097 15.5 1.65326 15.5 2.25V9.75C15.5 10.3467 15.2629 10.919 14.841 11.341C14.419 11.7629 13.8467 12 13.25 12H2.75C2.15326 12 1.58097 11.7629 1.15901 11.341C0.737053 10.919 0.5 10.3467 0.5 9.75V2.25ZM2.75 1.5C2.55109 1.5 2.36032 1.57902 2.21967 1.71967C2.07902 1.86032 2 2.05109 2 2.25V9.75C2 9.94891 2.07902 10.1397 2.21967 10.2803C2.36032 10.421 2.55109 10.5 2.75 10.5H13.25C13.4489 10.5 13.6397 10.421 13.7803 10.2803C13.921 10.1397 14 9.94891 14 9.75V2.25C14 2.05109 13.921 1.86032 13.7803 1.71967C13.6397 1.57902 13.4489 1.5 13.25 1.5H2.75ZM6.6275 16.5C6.78266 16.9389 7.07012 17.3188 7.45026 17.5875C7.8304 17.8561 8.28451 18.0002 8.75 18H13.25C14.3334 18 15.4062 17.7866 16.4071 17.372C17.4081 16.9574 18.3175 16.3497 19.0836 15.5836C19.8497 14.8175 20.4574 13.9081 20.872 12.9071C21.2866 11.9062 21.5 10.8334 21.5 9.75V8.25C21.5002 7.78451 21.3561 7.3304 21.0875 6.95026C20.8188 6.57012 20.4389 6.28266 20 6.1275V9.75C20 11.5402 19.2888 13.2571 18.023 14.523C16.7571 15.7888 15.0402 16.5 13.25 16.5H6.6275ZM5.75 15C5.28451 15.0002 4.8304 14.8561 4.45026 14.5875C4.07012 14.3188 3.78266 13.9389 3.6275 13.5H13.25C13.7425 13.5 14.2301 13.403 14.6851 13.2145C15.14 13.0261 15.5534 12.7499 15.9017 12.4017C16.2499 12.0534 16.5261 11.64 16.7145 11.1851C16.903 10.7301 17 10.2425 17 9.75V3.1275C17.4389 3.28266 17.8188 3.57012 18.0875 3.95026C18.3561 4.3304 18.5002 4.78451 18.5 5.25V9.75C18.5 11.1424 17.9469 12.4777 16.9623 13.4623C15.9777 14.4469 14.6424 15 13.25 15H5.75Z" fill="#222222"/>
</symbol>
</svg>
